<svg xmlns="http://www.w3.org/2000/svg" viewBox="0 0 64 64" width="32" height="32">
  <defs>
    <linearGradient id="borderGradient" x1="0%" y1="0%" x2="100%" y2="100%">
      <stop offset="0%" stop-color="#37e784"/>
      <stop offset="100%" stop-color="#87bdf8"/>
    </linearGradient>
  </defs>
  
  <!-- Main square background with rounded corners -->
  <rect x="2" y="2" width="60" height="60" rx="8" ry="8" fill="#0a192f" stroke="url(#borderGradient)" stroke-width="2"/>
  
  <!-- S letter - simplified -->
  <path d="M18 20 L28 20 M18 24 L24 24 M24 28 L28 28 M28 32 L18 32 M18 36 L24 36 M24 40 L28 40 M28 44 L18 44" 
        stroke="#37e784" stroke-width="2.8" fill="none" stroke-linecap="round"/>
  
  <!-- C letter - more recognizable -->
  <path d="M46 20 Q38 20 38 28 L38 36 Q38 44 46 44 M46 20 L42 20 M46 44 L42 44" 
        stroke="#87bdf8" stroke-width="2.8" fill="none" stroke-linecap="round" stroke-linejoin="round"/>
  
  <!-- Subtle corner accents -->
  <rect x="6" y="6" width="2" height="2" fill="#37e784" opacity="0.6"/>
  <rect x="56" y="6" width="2" height="2" fill="#87bdf8" opacity="0.6"/>
  <rect x="6" y="56" width="2" height="2" fill="#87bdf8" opacity="0.6"/>
  <rect x="56" y="56" width="2" height="2" fill="#37e784" opacity="0.6"/>
</svg>